PathFileType	4	(X/Y/Z)	/mnt/D494C4CF94C4B4F0/Trampoline_predictions/poses3d/1_partie_0429_002.trc
DataRate	CameraRate	NumFrames	NumMarkers	Units	OrigDataRate	OrigDataStartFrame	OrigNumFrames
120	120	6	17	m	120	157	1261
Frame#	Time	Nose			L Eye			R Eye			L Ear			R Ear			L Shoulder			R Shoulder			L Elbow			R Elbow			L Wrist			R Wrist			L Hip			R Hip			L Knee			R Knee			L Ankle			R Ankle			
		X1	Y1	Z1	X2	Y2	Z2	X3	Y3	Z3	X4	Y4	Z4	X5	Y5	Z5	X6	Y6	Z6	X7	Y7	Z7	X8	Y8	Z8	X9	Y9	Z9	X10	Y10	Z10	X11	Y11	Z11	X12	Y12	Z12	X13	Y13	Z13	X14	Y14	Z14	X15	Y15	Z15	X16	Y16	Z16	X17	Y17	Z17	
157	1.3083333333333333	1.3554258827549874	0.04304047390760211	3.5413913492653832	1.371877618756614	0.07368303495753248	3.5131718664011715	1.3950391922102403	0.06367381509204745	3.563843650283499	1.3425598953300215	0.1470827809559644	3.4945017874696185	1.3953876210129312	0.12421450047730213	3.61489782006582	1.1614486380832771	0.20350004899746682	3.469313445494635	1.3001051065813742	0.1320946581090771	3.7330162957377726	0.9106167426567183	0.13661507995416525	3.44386668667727	1.215641580906667	-0.09053514478412901	3.849070029971554	0.7298664162359212	-0.05457037114528734	3.4277607572406827	1.09701232756631	-0.27396333001145745	3.74592528923151	0.8106321260991926	0.2064392656633511	3.639506339211608	0.8357957684457819	0.19052807601627644	3.846793197798491	0.6657483376129907	-0.11410348310649186	3.5434114812111974	0.6491283359452319	-0.0659949260916867	3.791455997133456	0.3961749529489264	0.09111615727860559	3.7306728319092226	0.41883725637742786	0.11011092848452014	3.8295390743568456
158	1.3166666666666667	1.3379938631407302	0.04565358494035637	3.55126545172093	1.3547761099235214	0.07916743306619396	3.5264311821931664	1.3781083539143413	0.06149243574461979	3.577894829994257	1.3255658071818575	0.15730673875007076	3.5101865517113766	1.3834603005932782	0.13553199346733386	3.632619844200411	1.136504982728071	0.20917424783951535	3.493549981029742	1.2913651542862026	0.12503305981179674	3.7526586397647086	0.8897215252375137	0.1400979191192523	3.4844622283936872	1.1947611896628234	-0.09249273143057707	3.875697329405105	0.7044805308056193	-0.04529230848824397	3.475007002503603	1.0452294334899055	-0.2706438823535127	3.790189513306325	0.798199744657622	0.22347218196731478	3.6968171963584036	0.8406033441274037	0.19055040825423913	3.899781644284626	0.6604230492956886	-0.10696772569065814	3.593874708392762	0.6531347062803607	-0.054593892385564745	3.8348473431206163	0.4123575259797284	0.06680088670828041	3.7906775208418555	0.4432473197836046	0.04006061940480684	3.884283764034732
159	1.325	1.3136715836969155	0.037230074143414234	3.5565012544915526	1.3306806826585391	0.06950996587148962	3.5315412435480353	1.3552059335186024	0.05262291849145398	3.5743543971927565	1.3019931499102237	0.13511184799932177	3.525722178850886	1.3666572855065457	0.11916117330745228	3.637473757696048	1.1228169577966736	0.19341745768539337	3.524707996140284	1.2829214134033913	0.11239559296253887	3.7730224701454396	0.864437297336235	0.18559658690077277	3.5257438938522	1.1715477747739396	-0.10604507166065298	3.8970962365744004	0.6863160704511558	-0.016970107464122967	3.5166474162359984	1.0060170488990237	-0.2683563882593319	3.83183203718478	0.8058106643449349	0.25832023657154046	3.753672945045797	0.8571478850239943	0.2110181764582621	3.946455262707994	0.6639798801104762	-0.10155353380124392	3.6376427396408673	0.652761182080403	-0.052287276152881056	3.8777128593064947	0.4293985338630478	0.05809411425439185	3.885243703461738	0.42945387121479844	0.05281175573508493	3.9574127937237242
160	1.3333333333333333	1.2782913062864076	0.031073669878090623	3.5641914012761813	1.2883411452909481	0.07276107915585803	3.5471708708981353	1.3205698978320768	0.03907805627050844	3.5871657023149974	1.265912668877934	0.15637831504383556	3.5544013881744068	1.3371317659710416	0.10791177506663772	3.6475189760684943	1.097796302288862	0.20963140160058652	3.55897880548693	1.2651116640269893	0.10301287247915762	3.7867410258621645	0.8439866816826422	0.1610177511841118	3.576876030581759	1.1555889867838671	-0.1069520354011971	3.9079311474691583	0.6620087158071557	-0.01566883843577565	3.570676620360973	0.9938976094583981	-0.2861763655066727	3.8675166074499563	0.7973448234747507	0.24483535512385207	3.814345848494005	0.8669851573860856	0.18928395858411395	4.016985988069474	0.6397853850929476	-0.0860121453637643	3.6909017406725426	0.6647329168674961	-0.0975318053903414	3.924631510926933	0.4368555877946952	0.05483523406554596	3.964349002887502	0.4672060203872593	0.041812987462034476	4.035821349047035
161	1.3416666666666666	1.248443171412196	0.040718340936004765	3.580090891880467	1.2544913137496618	0.0826323554957558	3.559104430800823	1.2890431179180815	0.05047543546442045	3.5905353741390034	1.2318734982287527	0.17121118230603286	3.5811321013408484	1.3167745920904401	0.10145039225525519	3.651278711421752	1.0754566699241956	0.21776037819965163	3.594885431303483	1.250763227704672	0.08510882866366498	3.7986262528546697	0.8122509949857539	0.16654599391842453	3.6269026439210315	1.1278911868377874	-0.11672288712218118	3.9309706194117107	0.6338678679684225	-0.006376702861783226	3.636668112246976	0.9492469472864835	-0.2609530266752112	3.9169539588606317	0.7615655087854666	0.2584348784461321	3.8769573416965235	0.8554952874304965	0.17223003637904433	4.062685811798978	0.6374270975087113	-0.0817905163606317	3.7331910537777304	0.6732296004255915	-0.12448053243831958	3.9688148473138374	0.45415766945001934	0.04678917919148247	4.0397506087407935	0.46974367828732033	0.03844698980715778	4.096522704316326
162	1.35	1.2179718446068357	0.04195097259569955	3.599625832757117	1.2277045935752833	0.08110773621886457	3.5789421558389156	1.2671712662287526	0.04907478494804921	3.606825947070045	1.1998881938905392	0.18032708875258419	3.6006823109645687	1.2951658072496428	0.1000555045424147	3.6631508623430187	1.0439122901719353	0.24079147524582714	3.631182497060654	1.2392854349994047	0.07734116180619573	3.8086944872782467	0.7869989088764693	0.1836055838982659	3.6806066642504605	1.1069870819375374	-0.12135396028362454	3.9520807145666526	0.6186807691954145	0.007460339800318531	3.6874739397483096	0.9171892959486273	-0.25861131282974065	3.9592590822500817	0.7694966539921727	0.25591659509739134	3.9355805144450584	0.8729153482248354	0.15421253026594006	4.099124694872351	0.6084388088360986	-0.061237075263757275	3.789444167929704	0.6789129881320308	-0.12998401985129562	4.008441939165503	0.4740104105205073	0.035211101827377876	4.119014825439399	0.4869307989295013	0.025107786328262934	4.156807468483967
